<svg xmlns="http://www.w3.org/2000/svg" version="1.1" xmlns:xlink="http://www.w3.org/1999/xlink" xmlns:svgjs="http://svgjs.dev/svgjs" width="128" height="128" viewBox="0 0 128 128"><g transform="matrix(0.8046875,0,0,0.8046875,12.760752631578946,12.760752631578946)"><svg viewBox="0 0 95 95" data-background-color="#ffffff" preserveAspectRatio="xMidYMid meet" height="128" width="128" xmlns="http://www.w3.org/2000/svg" xmlns:xlink="http://www.w3.org/1999/xlink"><g id="tight-bounds" transform="matrix(1,0,0,1,-0.24049999999999727,-0.24049999999999727)"><svg viewBox="0 0 95.481 95.48099999999998" height="95.48099999999998" width="95.481"><g><svg viewBox="0 0 95.481 95.48099999999998" height="95.48099999999998" width="95.481"><g><svg viewBox="0 0 95.481 95.48099999999998" height="95.48099999999998" width="95.481"><g id="textblocktransform"><svg viewBox="0 0 95.481 95.48099999999998" height="95.48099999999998" width="95.481" id="textblock"><g><svg viewBox="0 0 95.481 95.48099999999998" height="95.48099999999998" width="95.481"><g><svg viewBox="0 0 95.481 95.48099999999998" height="95.48099999999998" width="95.481"><g><svg xmlns="http://www.w3.org/2000/svg" xmlns:xlink="http://www.w3.org/1999/xlink" version="1.1" x="0" y="0" viewBox="25.354 26.245 93.668 93.66799999999999" enable-background="new 0 0 144.083 144" xml:space="preserve" height="95.48099999999998" width="95.481" class="icon-icon-0" data-fill-palette-color="accent" id="icon-0"><path d="M99.555 60.724H84.543V45.711A1.5 1.5 0 0 0 83.043 44.211H61.331A1.5 1.5 0 0 0 59.831 45.711V60.724H44.819A1.5 1.5 0 0 0 43.319 62.224V83.935A1.5 1.5 0 0 0 44.819 85.435H59.831V100.448A1.5 1.5 0 0 0 61.331 101.948H83.043A1.5 1.5 0 0 0 84.543 100.448V85.435H99.555A1.5 1.5 0 0 0 101.055 83.935V62.224A1.5 1.5 0 0 0 99.555 60.724M98.055 82.435H83.043A1.5 1.5 0 0 0 81.543 83.935V98.948H62.831V83.935A1.5 1.5 0 0 0 61.331 82.435H46.319V63.724H61.331A1.5 1.5 0 0 0 62.831 62.224V47.211H81.543V62.224A1.5 1.5 0 0 0 83.043 63.724H98.055z" fill="#1e88e5" data-fill-palette-color="accent"></path><path d="M72.188 26.245C46.364 26.245 25.354 47.255 25.354 73.079S46.364 119.913 72.188 119.913 119.022 98.903 119.022 73.079 98.012 26.245 72.188 26.245M72.188 116.913C48.018 116.913 28.354 97.249 28.354 73.079S48.018 29.245 72.188 29.245 116.022 48.909 116.022 73.079 96.358 116.913 72.188 116.913" fill="#1e88e5" data-fill-palette-color="accent"></path></svg></g></svg></g></svg></g></svg></g></svg></g></svg></g><defs></defs></svg><rect width="95.481" height="95.48099999999998" fill="none" stroke="none" visibility="hidden"></rect></g></svg></g></svg>