<svg xmlns="http://www.w3.org/2000/svg" version="1.1" xmlns:xlink="http://www.w3.org/1999/xlink" xmlns:svgjs="http://svgjs.dev/svgjs" width="2000" height="666" viewBox="0 0 2000 666"><g transform="matrix(1,0,0,1,-1.2121212121212466,0.867802930137259)"><svg viewBox="0 0 396 132" data-background-color="#ffffff" preserveAspectRatio="xMidYMid meet" height="666" width="2000" xmlns="http://www.w3.org/2000/svg" xmlns:xlink="http://www.w3.org/1999/xlink"><g id="tight-bounds" transform="matrix(1,0,0,1,0.2400000000000091,-0.1719969771443175)"><svg viewBox="0 0 395.52 132.34399395428863" height="132.34399395428863" width="395.52"><g><svg viewBox="0 0 671.2408398178802 224.60227964889046" height="132.34399395428863" width="395.52"><g transform="matrix(1,0,0,1,275.72083981788023,58.16755554545271)"><svg viewBox="0 0 395.52 108.26716855798504" height="108.26716855798504" width="395.52"><g id="textblocktransform"><svg viewBox="0 0 395.52 108.26716855798504" height="108.26716855798504" width="395.52" id="textblock"><g><svg viewBox="0 0 395.52 108.26716855798504" height="108.26716855798504" width="395.52"><g transform="matrix(1,0,0,1,0,0)"><svg width="395.52" viewBox="1.61 -36.84 176.39999999999998 48.290000000000006" height="108.26716855798504" data-palette-color="#003231"><path d="M27.54-8.35L27.54 0 1.61 0 1.61-2.15 4.2-2.34Q4.74-2.39 5.02-2.73 5.3-3.08 5.3-3.44L5.3-3.44 5.3-30.1Q5.3-30.47 5.02-30.82 4.74-31.18 4.2-31.2L4.2-31.2 1.61-31.4 1.61-33.54 25.9-33.54 25.9-26.1 22.9-26.1 22.14-30.2Q22.12-30.57 21.85-30.86 21.58-31.15 21.24-31.15L21.24-31.15 10.4-31.15 10.4-18.7 17.9-18.7Q18.24-18.7 18.52-18.99 18.8-19.29 18.8-19.56L18.8-19.56 19.31-23 21.85-23 21.85-11.84 19.31-11.84 18.8-15.31Q18.8-15.58 18.51-15.89 18.21-16.21 17.9-16.21L17.9-16.21 10.4-16.21 10.4-2.44 23.05-2.44Q23.36-2.44 23.65-2.8 23.93-3.15 23.95-3.39L23.95-3.39 24.85-8.35 27.54-8.35ZM56.49-1.95L56.49 0 45.46 0 45.46-1.95 47.56-2.1Q48-2.15 48.3-2.44 48.61-2.73 48.61-3.2L48.61-3.2 48.61-16.21Q48.61-18.58 47.51-19.81 46.41-21.04 43.8-21.04L43.8-21.04Q42.38-21.04 40.98-20.64 39.57-20.24 38.3-19.6L38.3-19.6 38.3-3.2Q38.3-2.17 39.35-2.1L39.35-2.1 41.45-1.95 41.45 0 30.15 0 30.15-1.95 32.59-2.1Q33.64-2.17 33.64-3.2L33.64-3.2 33.64-20.56 30.15-20.56 30.15-22.19 36.25-24.1 38.3-24.1 38.3-21.61Q40.4-22.8 42.61-23.75 44.82-24.71 46.56-24.71L46.56-24.71Q49.83-24.71 51.54-22.67 53.24-20.63 53.24-16.99L53.24-16.99 53.24-3.2Q53.24-2.73 53.55-2.44 53.85-2.15 54.29-2.1L54.29-2.1 56.49-1.95ZM74.14-3.05L74.14-3.05 74.14-1.05Q74.14-1.05 73.2-0.63 72.26-0.22 70.73 0.2 69.21 0.61 67.4 0.61L67.4 0.61Q64.59 0.61 63.31-0.72 62.03-2.05 62.03-5L62.03-5 62.03-21.61 58.83-21.61 58.83-23.24 62.25-24.85 64.5-30.15 66.69-30.15 66.69-24.1 73.75-24.1 73.75-21.61 66.69-21.61 66.69-7.64Q66.69-4.66 67.7-3.43 68.7-2.2 70.7-2.2L70.7-2.2Q72.16-2.2 73.15-2.62 74.14-3.05 74.14-3.05ZM99.09-1.95L99.09 0 91.69 0 91.03-2.95Q91.03-2.95 90.29-2.42 89.54-1.88 88.32-1.17 87.1-0.46 85.62 0.07 84.15 0.61 82.68 0.61L82.68 0.61Q79.97 0.61 78.08-1.2 76.19-3 76.19-6.15L76.19-6.15Q76.19-7.54 76.69-8.74 77.19-9.94 78.69-11.02 80.19-12.11 83.16-13.15 86.13-14.18 91.03-15.26L91.03-15.26 91.03-17.41Q91.03-22.34 86.37-22.34L86.37-22.34Q85.08-22.34 84.14-22.09 83.2-21.85 82.83-21.7L82.83-21.7 82.83-17.36 79.19-17.36Q78.51-17.36 77.92-17.61 77.34-17.87 77.34-18.8L77.34-18.8Q77.34-20.85 78.9-22.16 80.46-23.46 82.87-24.08 85.27-24.71 87.74-24.71L87.74-24.71Q90.84-24.71 92.55-23.74 94.26-22.78 94.94-21.08 95.62-19.38 95.62-17.21L95.62-17.21 95.62-3.2Q95.62-2.73 95.93-2.44 96.23-2.15 96.67-2.1L96.67-2.1 99.09-1.95ZM91.03-4.71L91.03-4.71 91.03-13.35Q87.66-12.52 85.67-11.68 83.68-10.84 82.71-10 81.73-9.16 81.43-8.29 81.12-7.42 81.12-6.49L81.12-6.49Q81.12-4.96 82.11-3.65 83.1-2.34 84.88-2.34L84.88-2.34Q85.88-2.34 86.96-2.7 88.03-3.05 88.96-3.53 89.89-4 90.46-4.36 91.03-4.71 91.03-4.71ZM126.82-1.95L126.82 0 118.96 0 118.96-2.66Q117.25-1.34 115.32-0.37 113.39 0.61 111.22 0.61L111.22 0.61Q108.71 0.61 106.89-0.45 105.07-1.51 103.91-3.27 102.75-5.03 102.19-7.15 101.63-9.28 101.63-11.4L101.63-11.4Q101.63-14.79 103.02-17.83 104.41-20.87 107.24-22.79 110.07-24.71 114.37-24.71L114.37-24.71Q115.57-24.71 116.97-24.48 118.37-24.24 118.96-24.1L118.96-24.1 118.96-33.25 115.18-33.25 115.18-34.91 121.62-36.84 123.62-36.84 123.62-3.2Q123.62-2.17 124.67-2.1L124.67-2.1 126.82-1.95ZM118.96-4.54L118.96-4.54 118.96-21.56Q118.32-21.78 117.07-22.03 115.81-22.29 114.71-22.29L114.71-22.29Q111-22.29 108.78-19.54 106.56-16.8 106.56-12.26L106.56-12.26Q106.56-8.18 108.46-5.49 110.37-2.81 113.81-2.81L113.81-2.81Q115.32-2.81 116.65-3.38 117.98-3.96 118.96-4.54ZM150.92-5.54L150.92-2.49Q148.82-1.2 146.39-0.29 143.96 0.61 141.42 0.61L141.42 0.61Q138.39 0.61 135.74-0.74 133.09-2.1 131.46-4.86 129.82-7.62 129.82-11.79L129.82-11.79Q129.82-15.7 131.34-18.6 132.85-21.51 135.51-23.11 138.17-24.71 141.56-24.71L141.56-24.71Q146.23-24.71 148.57-21.81 150.92-18.92 150.92-14.45L150.92-14.45Q150.92-14.21 150.92-13.81 150.92-13.4 150.87-13.06L150.87-13.06 134.66-13.06Q134.66-11.16 135.06-9.27 135.46-7.37 136.41-5.83 137.37-4.3 138.98-3.37 140.59-2.44 143.01-2.44L143.01-2.44Q145.15-2.44 147.19-3.43 149.23-4.42 150.92-5.54L150.92-5.54ZM134.92-15.31L145.91-15.31 145.91-16.41Q145.91-18.87 144.73-20.56 143.54-22.24 141.05-22.24L141.05-22.24Q138.59-22.24 136.85-20.39 135.12-18.53 134.92-15.31L134.92-15.31ZM178.01-23.19L178.01-20.75 173.03-20.75Q173.59-19.85 173.98-18.77 174.37-17.7 174.37-16.26L174.37-16.26Q174.37-13.77 173.01-12 171.64-10.23 169.41-9.28 167.17-8.33 164.56-8.33L164.56-8.33Q164.32-8.33 164.07-8.33 163.83-8.33 163.58-8.35L163.58-8.35Q163.27-7.84 163.16-7.25 163.05-6.67 163.05-6.15L163.05-6.15Q163.05-5.69 163.1-5.37 163.14-5.05 163.17-5L163.17-5 163.88-4.93Q165.63-4.76 167.82-4.44 170-4.13 172.04-3.42 174.08-2.71 175.4-1.42 176.72-0.12 176.72 2L176.72 2Q176.72 4.37 174.99 6.53 173.25 8.69 170.31 10.07 167.37 11.45 163.73 11.45L163.73 11.45Q159.26 11.45 156.8 9.41 154.33 7.37 154.33 4.35L154.33 4.35Q154.33 2.17 155.62 0.48 156.92-1.22 159.63-1.71L159.63-1.71Q159.36-2.49 159.24-2.83 159.12-3.17 159.12-4L159.12-4Q159.12-4.98 159.71-6.16 160.31-7.35 161.63-8.69L161.63-8.69Q159.14-9.25 157.28-11.22 155.43-13.18 155.43-16.21L155.43-16.21Q155.43-20.14 158.2-22.42 160.97-24.71 165.46-24.71L165.46-24.71Q167.25-24.71 168.77-24.18 170.3-23.66 171.27-23.19L171.27-23.19 178.01-23.19ZM169.61-16.55L169.61-16.55Q169.61-18.14 169.08-19.53 168.54-20.92 167.51-21.79 166.49-22.66 164.98-22.66L164.98-22.66Q162.88-22.66 161.55-21.03 160.21-19.41 160.21-16.5L160.21-16.5Q160.21-13.99 161.41-12.19 162.61-10.4 164.98-10.4L164.98-10.4Q167.22-10.4 168.42-12.21 169.61-14.01 169.61-16.55ZM172.42 3.34L172.42 3.34Q172.42 1.78 171.34 0.93 170.25 0.07 168.64-0.34 167.03-0.76 165.39-0.94 163.75-1.12 162.63-1.34L162.63-1.34Q160.46-0.56 159.64 0.78 158.82 2.12 158.82 3.34L158.82 3.34Q158.82 4.54 159.52 5.9 160.21 7.25 161.67 8.2 163.12 9.16 165.37 9.16L165.37 9.16Q167.76 9.16 169.32 8.2 170.88 7.25 171.65 5.9 172.42 4.54 172.42 3.34Z" opacity="1" transform="matrix(1,0,0,1,0,0)" fill="#003231" class="wordmark-text-0" data-fill-palette-color="primary" id="text-0"></path></svg></g></svg></g></svg></g></svg></g><g><svg viewBox="0 0 224.60227964889046 224.60227964889046" height="224.60227964889046" width="224.60227964889046"><g><svg></svg></g><g id="icon-0"><svg viewBox="0 0 224.60227964889046 224.60227964889046" height="224.60227964889046" width="224.60227964889046"><g><path d="M0 112.301c0-62.022 50.279-112.301 112.301-112.301 62.022 0 112.301 50.279 112.301 112.301 0 62.022-50.279 112.301-112.301 112.301-62.022 0-112.301-50.279-112.301-112.301zM112.301 214.839c56.63 0 102.537-45.908 102.538-102.538 0-56.63-45.908-102.537-102.538-102.537-56.63 0-102.537 45.908-102.537 102.537 0 56.63 45.908 102.537 102.537 102.538z" data-fill-palette-color="accent" fill="#cdd6bb" stroke="transparent"></path></g><g transform="matrix(1,0,0,1,49.81742108563739,58.19923822992978)"><svg viewBox="0 0 124.96743747761568 108.2038031890309" height="108.2038031890309" width="124.96743747761568"><g><svg xmlns="http://www.w3.org/2000/svg" xml:space="preserve" viewBox="7.031227252711405 8.6 89.9687727472886 77.9" x="0" y="0" height="108.2038031890309" width="124.96743747761568" class="icon-dxe-0" data-fill-palette-color="accent" id="dxe-0"><path d="M50.9 58.5c0-11.5 8.7-21.1 19.9-22.4 1.3-0.2 2.7-0.4 4-0.4 4.4 0.2 8.3 1.4 11.7 3.5 1.8-4.9 1.8-10-1.1-15.1-3.2-5.3-9.3-8.6-16.2-8.6-6.3 0-12.1 2.8-15.3 7.6l-3 4.2-2.8-4.2c-3.2-4.8-9-7.6-15.3-7.6-6.9 0-13 3.3-16.2 8.6-7 11.7 2.1 23.2 13.1 33.9 4.5 4.5 15.9 14.4 21.3 18.9 1.4-1.1 3.1-2.7 5.1-4.4-3.3-3.7-5.2-8.6-5.2-14m10.5 19c-4.1 3.5-7.5 6.4-8.2 7l-2.3 2-2.1-2c-3.4-2.8-18.6-15.8-24.1-21.1-7.5-7.3-25.1-24.6-14.2-42.7C15 13.1 23.3 8.6 32.7 8.6c7 0 13.7 2.7 18.3 7.2 4.6-4.7 11.3-7.2 18.3-7.2 9.4 0 17.6 4.5 22.3 12.1 4.9 8.3 4 16.5 0.6 23.5C95.3 48 97 52.8 97 58c0 7.6-3.9 14.4-9.7 18.4l-0.1 0.1c-3.8 2.9-8.5 4.6-13.6 4.6-4.6 0-8.7-1.3-12.2-3.6m12.5-2.4c9.4 0 17-7.6 17-17 0-9.3-7.5-16.9-16.9-17h-0.1c-9.3 0-17 7.6-17 17 0 9.3 7.5 16.9 16.8 17z" fill="#cdd6bb" data-fill-palette-color="accent"></path><path d="M73.4 55.7v-3.4c-0.9 0.2-1.5 0.7-1.5 1.8 0 1 0.7 1.5 1.5 1.6m3.1 6.9c0-0.4-0.1-0.7-0.2-0.9-0.2-0.5-0.7-0.8-1.3-1v3.7c0.6 0 1.1-0.4 1.3-1 0.2-0.3 0.2-0.6 0.2-0.8m-3.1-13.9v-1.2c0-0.5 0.3-0.7 0.7-0.7 0.6 0 0.7 0.3 0.7 0.7v1.2c1.7 0 4.8 0.6 4.8 2.8 0 1-0.8 1.9-1.8 1.9s-1.8-1-3-1v3.7c3 0.9 6.1 2.2 6.1 5.9 0 4.2-3.4 6.1-6.1 6.3v1.2c0 0.4-0.3 0.7-0.7 0.7-0.6 0-0.7-0.3-0.7-0.7v-1c-1.8-0.2-6.1-0.6-6.1-3.1 0-1.2 0.9-2.2 1.9-2.2 0.9 0 2.2 1.2 4.2 1.2v-4.2c-4.5-1.3-6-3-6-5.4 0-3.5 2.7-5.8 6-6.1" fill="#cdd6bb" data-fill-palette-color="accent"></path><path d="M72.8 53.8v0.5-0.2q-0.15-0.15 0-0.3" fill="#cdd6bb" data-fill-palette-color="accent"></path></svg></g></svg></g></svg></g></svg></g></svg></g><defs></defs></svg><rect width="395.52" height="132.34399395428863" fill="none" stroke="none" visibility="hidden"></rect></g></svg></g></svg>