<svg xmlns="http://www.w3.org/2000/svg" version="1.1" xmlns:xlink="http://www.w3.org/1999/xlink" xmlns:svgjs="http://svgjs.dev/svgjs" width="2000" height="560" viewBox="0 0 2000 560"><g transform="matrix(1,0,0,1,-1.2121212121212466,0.23435840418130738)"><svg viewBox="0 0 396 111" data-background-color="#ffffff" preserveAspectRatio="xMidYMid meet" height="560" width="2000" xmlns="http://www.w3.org/2000/svg" xmlns:xlink="http://www.w3.org/1999/xlink"><g id="tight-bounds" transform="matrix(1,0,0,1,0.2400000000000091,-0.04645318368594076)"><svg viewBox="0 0 395.52 111.09290636737188" height="111.09290636737188" width="395.52"><g><svg viewBox="0 0 614.6369552801092 172.6380605857092" height="111.09290636737188" width="395.52"><g transform="matrix(1,0,0,1,219.1169552801092,37.09876362618794)"><svg viewBox="0 0 395.52 98.44053333333333" height="98.44053333333333" width="395.52"><g id="textblocktransform"><svg viewBox="0 0 395.52 98.44053333333333" height="98.44053333333333" width="395.52" id="textblock"><g><svg viewBox="0 0 395.52 98.44053333333333" height="98.44053333333333" width="395.52"><g transform="matrix(1,0,0,1,0,0)"><svg width="395.52" viewBox="1.95 -31.74 164.78 41.019999999999996" height="98.44053333333333" data-palette-color="#4338ca"><path d="M23.73-20.51L24.71-20.51 24.46-29.3 1.95-29.3 1.95-28.03 5.86-28.03 5.86-1.27 1.95-1.27 1.95 0 24.46 0 24.71-8.79 23.73-8.79 23.05-6.49Q21.83-2.34 19.43-1.51L19.43-1.51Q18.7-1.27 17.87-1.27L17.87-1.27 10.06-1.27 10.06-14.4 20.12-14.4 20.12-15.82 10.06-15.82 10.06-28.03 17.87-28.03Q21.39-28.03 22.9-23.29L22.9-23.29Q23-23 23.05-22.8L23.05-22.8 23.73-20.51ZM38.13-1.22L38.13-1.22 35.94-1.22 35.94-11.77Q36.08-16.31 39.16-18.31L39.16-18.31Q40.48-19.14 41.84-19.14L41.84-19.14Q44.82-19.14 45.9-16.36L45.9-16.36Q46.34-15.23 46.34-13.82L46.34-13.82 46.34-4.15Q46.34-1.9 45.07-1.46L45.07-1.46Q44.33-1.22 42.67-1.22L42.67-1.22 42.67 0 53.66 0Q53.66-1.07 52.93-1.17L52.93-1.17Q52.73-1.22 52.44-1.22L52.44-1.22 50-1.22 50-13.33Q50-18.21 46.63-20.31L46.63-20.31Q45.07-21.24 43.26-21.24L43.26-21.24Q39.65-21.24 37.3-18.36L37.3-18.36Q36.42-17.24 35.89-15.87L35.89-15.87 35.69-20.75 28.61-20.75 28.61-19.53 32.27-19.53 32.27-4.15Q32.27-1.9 31-1.46L31-1.46Q30.27-1.22 28.61-1.22L28.61-1.22 28.61 0 39.35 0Q39.35-1.07 38.62-1.17L38.62-1.17Q38.43-1.22 38.13-1.22ZM55.85-20.75L55.85-19.53 59.27-19.53 59.27-5.76Q59.61 0.34 64.89 0.54L64.89 0.54Q69.38 0.54 70.5-4.98L70.5-4.98Q70.5-5.03 70.5-5.08L70.5-5.08 69.18-5.32Q67.96-1.27 65.62-0.93L65.62-0.93Q62.98-1.03 62.93-4.69L62.93-4.69 62.93-19.53 70.5-19.53 70.5-20.75 62.93-20.75 62.93-26.42 59.27-25.39 59.27-20.75 55.85-20.75ZM89.84 0.49L89.84 0.49Q93.6 0.49 93.99-4.05L93.99-4.05Q94.04-4.35 94.04-4.59L94.04-4.59 92.77-4.64Q92.42-1.07 90.86-1.03L90.86-1.03Q89.59-1.12 89.54-3.56L89.54-3.56 89.54-13.87Q89.54-20.85 82.56-21.24L82.56-21.24Q82.12-21.24 81.68-21.24L81.68-21.24Q76.21-21.24 74.36-18.7L74.36-18.7Q73.77-17.87 73.77-17.04L73.77-17.04Q73.77-15.53 75.19-15.28L75.19-15.28Q75.43-15.23 75.68-15.23L75.68-15.23Q76.8-15.23 77.34-16.65L77.34-16.65Q78.02-18.46 78.26-18.8L78.26-18.8Q79.19-20.02 81.14-20.02L81.14-20.02Q85.73-19.73 85.88-14.99L85.88-14.99 85.88-11.91Q74.41-11.91 72.75-7.13L72.75-7.13Q72.45-6.2 72.45-5.13L72.45-5.13Q72.45-1.42 75.72-0.05L75.72-0.05Q77.04 0.49 78.51 0.49L78.51 0.49Q82.07 0.49 84.51-1.95L84.51-1.95Q85.39-2.88 85.83-3.91L85.83-3.91Q86.42 0.44 89.84 0.49ZM80.12-1.46L80.12-1.46Q77.14-1.46 76.46-4.44L76.46-4.44Q76.31-5.13 76.31-5.96L76.31-5.96Q76.31-9.23 80.07-10.11L80.07-10.11Q82.07-10.55 85.88-10.6L85.88-10.6 85.88-6.69Q85.15-3.32 82.32-1.95L82.32-1.95Q81.19-1.46 80.12-1.46ZM112.49-5.18L112.88 0 119.86 0Q119.86-1.07 119.13-1.17L119.13-1.17Q118.94-1.22 118.64-1.22L118.64-1.22 116.2-1.22 116.1-31.74 107.8-31.74 107.8-30.52 112.44-30.52 112.44-18.6Q110.05-21.24 106-21.24L106-21.24Q100.62-21.24 97.89-16.46L97.89-16.46Q96.23-13.53 96.23-9.86L96.23-9.86Q96.23-3.81 100.04-1.03L100.04-1.03Q102.19 0.49 104.78 0.49L104.78 0.49Q110.1 0.39 112.49-5.18L112.49-5.18ZM100.38-10.45L100.38-10.45Q100.38-17.33 104.09-19.38L104.09-19.38Q105.26-20.02 106.68-20.02L106.68-20.02Q110.24-20.02 111.76-16.21L111.76-16.21Q112.59-14.16 112.59-11.38L112.59-11.38Q112.59-5.52 109.66-2.88L109.66-2.88Q108.1-1.46 106.09-1.46L106.09-1.46Q102.09-1.46 100.87-6.35L100.87-6.35Q100.38-8.15 100.38-10.45ZM133.19-20.02L133.19-20.02Q136.61-20.02 137.73-17.14L137.73-17.14Q138.12-16.21 138.12-15.14L138.12-15.14Q138.12-12.7 135.78-12.16L135.78-12.16Q134.56-11.91 132.31-11.96L132.31-11.96 127.14-12.11Q127.38-17.72 130.8-19.43L130.8-19.43Q131.92-20.02 133.19-20.02ZM141.69-4.69L141.69-4.69 140.47-5.13Q138.76-1.42 134.95-0.93L134.95-0.93Q134.46-0.88 134.02-0.88L134.02-0.88Q128.89-0.88 127.58-6.98L127.58-6.98Q127.18-8.69 127.14-10.74L127.14-10.74 133-10.64Q138.95-10.55 140.66-11.77L140.66-11.77Q141.98-12.74 141.98-14.55L141.98-14.55Q141.98-17.87 138.61-19.82L138.61-19.82Q136.22-21.24 133.09-21.24L133.09-21.24Q126.99-21.24 124.35-16.16L124.35-16.16Q122.99-13.53 122.99-10.21L122.99-10.21Q122.99-4.15 127.33-1.22L127.33-1.22Q129.92 0.49 133.24 0.49L133.24 0.49Q138.51 0.49 141-3.32L141-3.32Q141.39-4 141.69-4.69ZM150.03-13.53L150.03-13.53Q150.13-19.97 154.92-20.02L154.92-20.02Q159.7-19.92 159.75-13.53L159.75-13.53Q159.65-6.88 154.92-6.84L154.92-6.84Q150.08-6.93 150.03-13.53ZM154.97-21.24L154.97-21.24Q150.57-21.24 147.98-18.41L147.98-18.41Q146.13-16.31 146.13-13.48L146.13-13.48Q146.13-9.77 149.74-7.32L149.74-7.32Q150.08-7.08 150.42-6.88L150.42-6.88Q147.3-6.88 146.52-4.2L146.52-4.2Q146.37-3.56 146.37-2.93L146.37-2.93Q146.42-0.34 148.47 0.93L148.47 0.93Q146.86 2.64 146.86 4.39L146.86 4.39Q146.86 7.08 150.03 8.4L150.03 8.4Q152.04 9.28 154.97 9.28L154.97 9.28Q162.39 9.28 164.78 5.66L164.78 5.66Q165.56 4.44 165.56 3.08L165.56 3.08Q165.56-1.12 160.73-1.76L160.73-1.76Q160.09-1.86 159.41-1.86L159.41-1.86 150.52-2.05Q148.28-2.2 148.23-4L148.23-4Q148.23-5.27 149.84-5.62L149.84-5.62Q150.18-5.66 150.57-5.66L150.57-5.66 154.87-5.62Q159.21-5.62 161.8-8.54L161.8-8.54Q163.66-10.64 163.66-13.53L163.66-13.53Q163.61-17.19 160.82-19.38L160.82-19.38Q161.26-20.95 162.49-21.24L162.49-21.24Q162.68-21.29 162.88-21.29L162.88-21.29Q163.56-21.29 164.34-20.56L164.34-20.56Q164.88-20.07 165.32-20.07L165.32-20.07Q166.54-20.36 166.73-21.63L166.73-21.63Q166.73-23.14 165.32-23.68L165.32-23.68Q164.78-23.88 164.24-23.88L164.24-23.88Q161.95-23.88 160.53-21.83L160.53-21.83Q159.99-21.04 159.7-20.12L159.7-20.12Q157.5-21.24 154.97-21.24ZM154.97 8.01L154.97 8.01Q150.13 8.01 148.86 5.47L148.86 5.47Q148.52 4.79 148.52 4.1L148.52 4.1Q148.57 2.78 149.69 1.46L149.69 1.46Q150.67 1.66 151.3 1.66L151.3 1.66 158.82 1.76Q162.49 1.81 163.07 3.42L163.07 3.42Q163.22 3.81 163.22 4.39L163.22 4.39Q163.22 6.54 159.21 7.52L159.21 7.52Q157.26 8.01 154.97 8.01Z" opacity="1" transform="matrix(1,0,0,1,0,0)" fill="#4338ca" class="wordmark-text-0" data-fill-palette-color="primary" id="text-0"></path></svg></g></svg></g></svg></g></svg></g><g><svg viewBox="0 0 172.6380605857092 172.6380605857092" height="172.6380605857092" width="172.6380605857092"><g><svg></svg></g><g id="icon-0"><svg viewBox="0 0 172.6380605857092 172.6380605857092" height="172.6380605857092" width="172.6380605857092"><g><path d="M0 86.319c0-47.673 38.646-86.319 86.319-86.319 47.673 0 86.319 38.646 86.319 86.319 0 47.673-38.646 86.319-86.319 86.319-47.673 0-86.319-38.646-86.319-86.319zM86.319 163.761c42.77 0 77.442-34.672 77.442-77.442 0-42.77-34.672-77.442-77.442-77.442-42.77 0-77.442 34.672-77.442 77.442 0 42.77 34.672 77.442 77.442 77.442z" data-fill-palette-color="accent" fill="#4338ca" stroke="transparent"></path></g><g transform="matrix(1,0,0,1,38.57557306235133,44.98007228902553)"><svg viewBox="0 0 95.48691446100655 82.67791600765815" height="82.67791600765815" width="95.48691446100655"><g><svg xmlns="http://www.w3.org/2000/svg" xml:space="preserve" viewBox="7.031227252711405 8.6 89.9687727472886 77.9" x="0" y="0" height="82.67791600765815" width="95.48691446100655" class="icon-dxe-0" data-fill-palette-color="accent" id="dxe-0"><path d="M50.9 58.5c0-11.5 8.7-21.1 19.9-22.4 1.3-0.2 2.7-0.4 4-0.4 4.4 0.2 8.3 1.4 11.7 3.5 1.8-4.9 1.8-10-1.1-15.1-3.2-5.3-9.3-8.6-16.2-8.6-6.3 0-12.1 2.8-15.3 7.6l-3 4.2-2.8-4.2c-3.2-4.8-9-7.6-15.3-7.6-6.9 0-13 3.3-16.2 8.6-7 11.7 2.1 23.2 13.1 33.9 4.5 4.5 15.9 14.4 21.3 18.9 1.4-1.1 3.1-2.7 5.1-4.4-3.3-3.7-5.2-8.6-5.2-14m10.5 19c-4.1 3.5-7.5 6.4-8.2 7l-2.3 2-2.1-2c-3.4-2.8-18.6-15.8-24.1-21.1-7.5-7.3-25.1-24.6-14.2-42.7C15 13.1 23.3 8.6 32.7 8.6c7 0 13.7 2.7 18.3 7.2 4.6-4.7 11.3-7.2 18.3-7.2 9.4 0 17.6 4.5 22.3 12.1 4.9 8.3 4 16.5 0.6 23.5C95.3 48 97 52.8 97 58c0 7.6-3.9 14.4-9.7 18.4l-0.1 0.1c-3.8 2.9-8.5 4.6-13.6 4.6-4.6 0-8.7-1.3-12.2-3.6m12.5-2.4c9.4 0 17-7.6 17-17 0-9.3-7.5-16.9-16.9-17h-0.1c-9.3 0-17 7.6-17 17 0 9.3 7.5 16.9 16.8 17z" fill="#4338ca" data-fill-palette-color="accent"></path><path d="M73.4 55.7v-3.4c-0.9 0.2-1.5 0.7-1.5 1.8 0 1 0.7 1.5 1.5 1.6m3.1 6.9c0-0.4-0.1-0.7-0.2-0.9-0.2-0.5-0.7-0.8-1.3-1v3.7c0.6 0 1.1-0.4 1.3-1 0.2-0.3 0.2-0.6 0.2-0.8m-3.1-13.9v-1.2c0-0.5 0.3-0.7 0.7-0.7 0.6 0 0.7 0.3 0.7 0.7v1.2c1.7 0 4.8 0.6 4.8 2.8 0 1-0.8 1.9-1.8 1.9s-1.8-1-3-1v3.7c3 0.9 6.1 2.2 6.1 5.9 0 4.2-3.4 6.1-6.1 6.3v1.2c0 0.4-0.3 0.7-0.7 0.7-0.6 0-0.7-0.3-0.7-0.7v-1c-1.8-0.2-6.1-0.6-6.1-3.1 0-1.2 0.9-2.2 1.9-2.2 0.9 0 2.2 1.2 4.2 1.2v-4.2c-4.5-1.3-6-3-6-5.4 0-3.5 2.7-5.8 6-6.1" fill="#4338ca" data-fill-palette-color="accent"></path><path d="M72.8 53.8v0.5-0.2q-0.15-0.15 0-0.3" fill="#4338ca" data-fill-palette-color="accent"></path></svg></g></svg></g></svg></g></svg></g></svg></g><defs></defs></svg><rect width="395.52" height="111.09290636737188" fill="none" stroke="none" visibility="hidden"></rect></g></svg></g></svg>