<svg xmlns="http://www.w3.org/2000/svg" version="1.1" xmlns:xlink="http://www.w3.org/1999/xlink" xmlns:svgjs="http://svgjs.dev/svgjs" width="2000" height="510" viewBox="0 0 2000 510"><g transform="matrix(1,0,0,1,-1.2121212121212466,0.1687941141385636)"><svg viewBox="0 0 396 101" data-background-color="#ffffff" preserveAspectRatio="xMidYMid meet" height="510" width="2000" xmlns="http://www.w3.org/2000/svg" xmlns:xlink="http://www.w3.org/1999/xlink"><g id="tight-bounds" transform="matrix(1,0,0,1,0.2400000000000091,-0.03342785397646253)"><svg viewBox="0 0 395.52 101.06685570795294" height="101.06685570795294" width="395.52"><g><svg viewBox="0 0 564.3761210309378 144.21450239999996" height="101.06685570795294" width="395.52"><g transform="matrix(1,0,0,1,168.85612103093786,19.91723901973203)"><svg viewBox="0 0 395.5199999999999 104.3800243605359" height="104.3800243605359" width="395.5199999999999"><g id="textblocktransform"><svg viewBox="0 0 395.5199999999999 104.3800243605359" height="104.3800243605359" width="395.5199999999999" id="textblock"><g><svg viewBox="0 0 395.5199999999999 104.3800243605359" height="104.3800243605359" width="395.5199999999999"><g transform="matrix(1,0,0,1,0,0)"><svg width="395.5199999999999" viewBox="3.5 -36 184.71 48.75" height="104.3800243605359" data-palette-color="#111111"><path d="M25.75 0L3.5 0 3.5-36 25.75-36 25.75-33.2 6.38-33.2 6.38-19.53 22.75-19.53 22.75-16.73 6.38-16.73 6.38-2.8 25.75-2.8 25.75 0ZM54.42 0L51.52 0 51.52-14.05Q51.52-16.6 51.01-18.6 50.5-20.6 49.46-22 48.42-23.4 46.86-24.13 45.3-24.85 43.17-24.85L43.17-24.85Q40.97-24.85 39.36-24.09 37.75-23.33 36.71-21.95 35.67-20.58 35.16-18.69 34.65-16.8 34.65-14.58L34.65-14.58 32.37-14.85Q32.37-19.23 33.86-22.06 35.35-24.9 37.87-26.26 40.4-27.63 43.55-27.63L43.55-27.63Q45.77-27.63 47.53-26.98 49.3-26.33 50.6-25.14 51.9-23.95 52.75-22.34 53.6-20.73 54.01-18.8 54.42-16.88 54.42-14.78L54.42-14.78 54.42 0ZM34.65 0L31.75 0 31.75-27 34.37-27 34.37-20.93 34.65-20.93 34.65 0ZM75.25-2.6L75.25 0Q73.09 0.48 71 0.36 68.9 0.25 67.26-0.59 65.62-1.43 64.8-3.18L64.8-3.18Q64.12-4.6 64.05-6.05 63.97-7.5 63.97-9.38L63.97-9.38 63.97-34.5 66.87-34.5 66.87-9.43Q66.87-7.73 66.91-6.61 66.95-5.5 67.42-4.58L67.42-4.58Q68.32-2.85 70.27-2.49 72.22-2.13 75.25-2.6L75.25-2.6ZM75.25-24.38L57.92-24.38 57.92-27 75.25-27 75.25-24.38ZM88.22 0.75L88.22 0.75Q85.09 0.75 83.03-0.35 80.97-1.45 79.94-3.26 78.92-5.08 78.92-7.2L78.92-7.2Q78.92-9.5 79.88-11.05 80.84-12.6 82.45-13.55 84.07-14.5 86.02-14.98L86.02-14.98Q88.24-15.48 90.82-15.84 93.39-16.2 95.73-16.48 98.07-16.75 99.54-16.95L99.54-16.95 98.49-16.32Q98.59-20.7 96.86-22.84 95.12-24.98 90.74-24.98L90.74-24.98Q87.67-24.98 85.68-23.59 83.69-22.2 82.89-19.3L82.89-19.3 79.94-20.13Q80.87-23.8 83.67-25.78 86.47-27.75 90.84-27.75L90.84-27.75Q94.57-27.75 97.11-26.3 99.64-24.85 100.64-22.23L100.64-22.23Q101.07-21.15 101.22-19.71 101.37-18.28 101.37-16.82L101.37-16.82 101.37 0 98.74 0 98.74-7.1 99.72-6.85Q98.49-3.2 95.44-1.23 92.39 0.75 88.22 0.75ZM88.37-1.9L88.37-1.9Q91.12-1.9 93.19-2.89 95.27-3.88 96.56-5.66 97.84-7.45 98.19-9.88L98.19-9.88Q98.44-11.23 98.47-12.8 98.49-14.38 98.49-15.13L98.49-15.13 99.74-14.33Q98.12-14.13 95.86-13.9 93.59-13.68 91.24-13.35 88.89-13.03 86.99-12.53L86.99-12.53Q85.82-12.2 84.63-11.59 83.44-10.98 82.66-9.9 81.87-8.83 81.87-7.18L81.87-7.18Q81.87-5.95 82.48-4.73 83.09-3.5 84.52-2.7 85.94-1.9 88.37-1.9ZM118.24 0.75L118.24 0.75Q114.42 0.75 111.78-1.14 109.14-3.03 107.75-6.26 106.37-9.5 106.37-13.55L106.37-13.55Q106.37-17.55 107.74-20.78 109.12-24 111.7-25.88 114.29-27.75 117.97-27.75L117.97-27.75Q121.74-27.75 124.34-25.9 126.94-24.05 128.27-20.84 129.59-17.63 129.59-13.55L129.59-13.55Q129.59-9.5 128.27-6.28 126.94-3.05 124.42-1.15 121.89 0.75 118.24 0.75ZM118.42-2L118.42-2Q121.44-2 123.45-3.51 125.47-5.03 126.45-7.64 127.44-10.25 127.44-13.55L127.44-13.55Q127.44-16.88 126.44-19.48 125.44-22.08 123.44-23.54 121.44-25 118.47-25L118.47-25Q115.39-25 113.39-23.49 111.39-21.98 110.42-19.39 109.44-16.8 109.44-13.55L109.44-13.55Q109.44-10.28 110.45-7.66 111.47-5.05 113.45-3.53 115.44-2 118.42-2ZM130.06 0L127.44 0 127.44-20.8 127.19-20.8 127.19-36 130.06-36 130.06 0ZM148.19 0.75L148.19 0.75Q144.31 0.75 141.49-0.99 138.66-2.73 137.11-5.91 135.56-9.1 135.56-13.45L135.56-13.45Q135.56-17.88 137.1-21.09 138.64-24.3 141.45-26.03 144.26-27.75 148.14-27.75L148.14-27.75Q152.06-27.75 154.85-25.96 157.64-24.18 159.1-20.8 160.56-17.43 160.49-12.68L160.49-12.68 157.49-12.68 157.49-13.68Q157.36-19.23 154.99-22.13 152.61-25.03 148.19-25.03L148.19-25.03Q143.61-25.03 141.13-22.01 138.64-19 138.64-13.5L138.64-13.5Q138.64-8.05 141.13-5.05 143.61-2.05 148.14-2.05L148.14-2.05Q151.26-2.05 153.6-3.51 155.94-4.98 157.31-7.7L157.31-7.7 159.91-6.55Q158.29-3.05 155.21-1.15 152.14 0.75 148.19 0.75ZM158.86-12.68L137.54-12.68 137.54-15.28 158.86-15.28 158.86-12.68ZM176.51 12.75L176.51 12.75Q174.51 12.75 172.52 12.16 170.53 11.58 168.81 10.26 167.08 8.95 165.88 6.78L165.88 6.78 168.48 5.23Q169.71 7.73 171.96 8.8 174.21 9.88 176.53 9.88L176.53 9.88Q179.81 9.88 181.72 8.66 183.63 7.45 184.46 5.04 185.28 2.63 185.28-0.95L185.28-0.95 185.28-8.03 185.58-8.03 185.58-27 188.21-27 188.21-0.95Q188.21 0.25 188.16 1.35 188.11 2.45 187.94 3.55L187.94 3.55Q187.48 6.68 186.08 8.71 184.69 10.75 182.3 11.75 179.91 12.75 176.51 12.75ZM176.38 0.75L176.38 0.75Q172.56 0.75 169.92-1.14 167.28-3.03 165.9-6.26 164.51-9.5 164.51-13.55L164.51-13.55Q164.51-17.55 165.88-20.78 167.26-24 169.85-25.88 172.44-27.75 176.11-27.75L176.11-27.75Q179.88-27.75 182.48-25.9 185.08-24.05 186.41-20.84 187.73-17.63 187.73-13.55L187.73-13.55Q187.73-9.5 186.41-6.28 185.08-3.05 182.56-1.15 180.03 0.75 176.38 0.75ZM176.56-2L176.56-2Q179.58-2 181.6-3.51 183.61-5.03 184.6-7.64 185.58-10.25 185.58-13.55L185.58-13.55Q185.58-16.88 184.58-19.48 183.58-22.08 181.58-23.54 179.58-25 176.61-25L176.61-25Q173.53-25 171.53-23.49 169.53-21.98 168.56-19.39 167.58-16.8 167.58-13.55L167.58-13.55Q167.58-10.28 168.6-7.66 169.61-5.05 171.6-3.53 173.58-2 176.56-2Z" opacity="1" transform="matrix(1,0,0,1,0,0)" fill="#111111" class="wordmark-text-0" data-fill-palette-color="primary" id="text-0"></path></svg></g></svg></g></svg></g></svg></g><g><svg viewBox="0 0 144.2145024 144.21450239999996" height="144.21450239999996" width="144.2145024"><g><svg xmlns="http://www.w3.org/2000/svg" xmlns:xlink="http://www.w3.org/1999/xlink" version="1.1" x="0" y="0" viewBox="25.354 26.245 93.668 93.66799999999999" enable-background="new 0 0 144.083 144" xml:space="preserve" height="144.21450239999996" width="144.2145024" class="icon-icon-0" data-fill-palette-color="accent" id="icon-0"><path d="M99.555 60.724H84.543V45.711A1.5 1.5 0 0 0 83.043 44.211H61.331A1.5 1.5 0 0 0 59.831 45.711V60.724H44.819A1.5 1.5 0 0 0 43.319 62.224V83.935A1.5 1.5 0 0 0 44.819 85.435H59.831V100.448A1.5 1.5 0 0 0 61.331 101.948H83.043A1.5 1.5 0 0 0 84.543 100.448V85.435H99.555A1.5 1.5 0 0 0 101.055 83.935V62.224A1.5 1.5 0 0 0 99.555 60.724M98.055 82.435H83.043A1.5 1.5 0 0 0 81.543 83.935V98.948H62.831V83.935A1.5 1.5 0 0 0 61.331 82.435H46.319V63.724H61.331A1.5 1.5 0 0 0 62.831 62.224V47.211H81.543V62.224A1.5 1.5 0 0 0 83.043 63.724H98.055z" fill="#1e88e5" data-fill-palette-color="accent"></path><path d="M72.188 26.245C46.364 26.245 25.354 47.255 25.354 73.079S46.364 119.913 72.188 119.913 119.022 98.903 119.022 73.079 98.012 26.245 72.188 26.245M72.188 116.913C48.018 116.913 28.354 97.249 28.354 73.079S48.018 29.245 72.188 29.245 116.022 48.909 116.022 73.079 96.358 116.913 72.188 116.913" fill="#1e88e5" data-fill-palette-color="accent"></path></svg></g></svg></g></svg></g><defs></defs></svg><rect width="395.52" height="101.06685570795294" fill="none" stroke="none" visibility="hidden"></rect></g></svg></g></svg>